<svg width="385" height="50" viewBox="0 0 385 50" fill="none" xmlns="http://www.w3.org/2000/svg">
<path d="M16.9212 21.7273V26.6989H1.2429V21.7273H16.9212ZM5.11364 15.1932H11.5412V40.7969C11.5412 41.661 11.6714 42.3239 11.9318 42.7855C12.2041 43.2353 12.5592 43.5431 12.9972 43.7088C13.4351 43.8745 13.9205 43.9574 14.4531 43.9574C14.8556 43.9574 15.2225 43.9278 15.554 43.8686C15.8973 43.8094 16.1577 43.7562 16.3352 43.7088L17.4183 48.7337C17.075 48.852 16.5838 48.9822 15.9446 49.1243C15.3172 49.2663 14.5478 49.3492 13.6364 49.3729C12.0265 49.4202 10.5765 49.1776 9.28622 48.6449C7.99598 48.1004 6.97206 47.2599 6.21449 46.1236C5.46875 44.9872 5.1018 43.5668 5.11364 41.8622V15.1932ZM34.0776 49.5327C31.3432 49.5327 28.9817 48.9645 26.9931 47.8281C25.0163 46.6799 23.4952 45.0582 22.4299 42.9631C21.3645 40.8561 20.8319 38.3762 20.8319 35.5234C20.8319 32.718 21.3645 30.2559 22.4299 28.1371C23.507 26.0064 25.0104 24.3492 26.9398 23.1655C28.8693 21.9699 31.1361 21.3722 33.7402 21.3722C35.4211 21.3722 37.0073 21.6444 38.4988 22.1889C40.0021 22.7216 41.3278 23.5502 42.476 24.6747C43.6361 25.7992 44.5475 27.2315 45.2104 28.9716C45.8733 30.6998 46.2047 32.7595 46.2047 35.1506V37.1214H23.8503V32.7891H40.0435C40.0317 31.558 39.7653 30.4631 39.2445 29.5043C38.7237 28.5336 37.9957 27.7701 37.0605 27.2138C36.1373 26.6574 35.0601 26.3793 33.829 26.3793C32.5151 26.3793 31.361 26.6989 30.3667 27.3381C29.3723 27.9654 28.597 28.794 28.0407 29.8239C27.4962 30.8419 27.218 31.9605 27.2061 33.1797V36.9616C27.2061 38.5478 27.4962 39.9091 28.0762 41.0455C28.6562 42.17 29.467 43.0341 30.5087 43.6378C31.5504 44.2296 32.7696 44.5256 34.1664 44.5256C35.1015 44.5256 35.9479 44.3954 36.7054 44.1349C37.463 43.8627 38.12 43.4661 38.6763 42.9453C39.2327 42.4245 39.6529 41.7794 39.937 41.0099L45.9384 41.6847C45.5596 43.2708 44.8375 44.6558 43.7722 45.8395C42.7187 47.0114 41.3693 47.9228 39.7239 48.5739C38.0785 49.2131 36.1964 49.5327 34.0776 49.5327ZM58.07 12.6364V49H51.6424V12.6364H58.07ZM76.7534 49.5327C74.019 49.5327 71.6575 48.9645 69.6689 47.8281C67.6921 46.6799 66.171 45.0582 65.1056 42.9631C64.0403 40.8561 63.5076 38.3762 63.5076 35.5234C63.5076 32.718 64.0403 30.2559 65.1056 28.1371C66.1828 26.0064 67.6861 24.3492 69.6156 23.1655C71.545 21.9699 73.8118 21.3722 76.416 21.3722C78.0969 21.3722 79.6831 21.6444 81.1745 22.1889C82.6779 22.7216 84.0036 23.5502 85.1518 24.6747C86.3118 25.7992 87.2233 27.2315 87.8862 28.9716C88.5491 30.6998 88.8805 32.7595 88.8805 35.1506V37.1214H66.5261V32.7891H82.7193C82.7074 31.558 82.4411 30.4631 81.9203 29.5043C81.3994 28.5336 80.6715 27.7701 79.7363 27.2138C78.813 26.6574 77.7359 26.3793 76.5048 26.3793C75.1909 26.3793 74.0368 26.6989 73.0424 27.3381C72.0481 27.9654 71.2728 28.794 70.7164 29.8239C70.1719 30.8419 69.8938 31.9605 69.8819 33.1797V36.9616C69.8819 38.5478 70.1719 39.9091 70.752 41.0455C71.332 42.17 72.1428 43.0341 73.1845 43.6378C74.2261 44.2296 75.4454 44.5256 76.8422 44.5256C77.7773 44.5256 78.6236 44.3954 79.3812 44.1349C80.1388 43.8627 80.7958 43.4661 81.3521 42.9453C81.9084 42.4245 82.3287 41.7794 82.6127 41.0099L88.6142 41.6847C88.2354 43.2708 87.5133 44.6558 86.448 45.8395C85.3945 47.0114 84.045 47.9228 82.3997 48.5739C80.7543 49.2131 78.8722 49.5327 76.7534 49.5327ZM79.8429 18.4602L76.2385 13.9148L72.6341 18.4602H67.0055V18.2116L73.7349 10.5412H78.7598L85.4714 18.2116V18.4602H79.8429Z" fill="#F9C817"/>
<path d="M127.858 28.9361L121.999 29.5753C121.833 28.9834 121.543 28.4271 121.129 27.9062C120.726 27.3854 120.182 26.9652 119.495 26.6456C118.808 26.326 117.968 26.1662 116.974 26.1662C115.636 26.1662 114.512 26.4562 113.6 27.0362C112.701 27.6162 112.257 28.3679 112.268 29.2912C112.257 30.0843 112.547 30.7294 113.138 31.2266C113.742 31.7237 114.737 32.1321 116.121 32.4517L120.773 33.446C123.354 34.0024 125.272 34.8842 126.526 36.0916C127.793 37.299 128.432 38.8793 128.444 40.8324C128.432 42.5488 127.929 44.0639 126.935 45.3778C125.952 46.6799 124.585 47.6979 122.833 48.4318C121.081 49.1657 119.069 49.5327 116.796 49.5327C113.458 49.5327 110.771 48.8343 108.735 47.4375C106.699 46.0289 105.486 44.0698 105.095 41.5604L111.363 40.9567C111.647 42.1877 112.251 43.117 113.174 43.7443C114.097 44.3717 115.299 44.6854 116.778 44.6854C118.305 44.6854 119.531 44.3717 120.454 43.7443C121.389 43.117 121.857 42.3416 121.857 41.4183C121.857 40.6371 121.555 39.992 120.951 39.483C120.359 38.974 119.436 38.5833 118.181 38.3111L113.529 37.3345C110.913 36.79 108.978 35.8726 107.723 34.5824C106.468 33.2803 105.847 31.6349 105.859 29.6463C105.847 27.9654 106.303 26.5095 107.226 25.2784C108.161 24.0355 109.457 23.0767 111.114 22.402C112.783 21.7154 114.707 21.3722 116.885 21.3722C120.081 21.3722 122.596 22.0528 124.431 23.4141C126.278 24.7753 127.42 26.616 127.858 28.9361ZM151.127 37.5298V21.7273H157.554V49H151.322V44.1527H151.038C150.422 45.6797 149.41 46.9285 148.002 47.8991C146.605 48.8698 144.883 49.3551 142.835 49.3551C141.047 49.3551 139.467 48.9586 138.094 48.1655C136.733 47.3606 135.667 46.1946 134.898 44.6676C134.129 43.1288 133.744 41.2704 133.744 39.0923V21.7273H140.172V38.098C140.172 39.8262 140.645 41.1993 141.592 42.2173C142.539 43.2353 143.782 43.7443 145.321 43.7443C146.268 43.7443 147.185 43.5135 148.073 43.0518C148.961 42.5902 149.689 41.9036 150.257 40.9922C150.837 40.0689 151.127 38.9148 151.127 37.5298ZM172.012 49.5504C170.284 49.5504 168.727 49.2427 167.342 48.6271C165.969 47.9998 164.88 47.0765 164.075 45.8572C163.282 44.638 162.885 43.1347 162.885 41.3473C162.885 39.8085 163.17 38.536 163.738 37.5298C164.306 36.5237 165.081 35.7188 166.064 35.1151C167.046 34.5114 168.153 34.0556 169.384 33.7479C170.627 33.4283 171.911 33.1974 173.237 33.0554C174.835 32.8897 176.131 32.7417 177.126 32.6115C178.12 32.4695 178.842 32.2564 179.292 31.9723C179.753 31.6764 179.984 31.2206 179.984 30.6051V30.4986C179.984 29.161 179.588 28.1252 178.795 27.3913C178.001 26.6574 176.859 26.2905 175.368 26.2905C173.793 26.2905 172.545 26.6338 171.621 27.3203C170.71 28.0069 170.094 28.8177 169.775 29.7528L163.773 28.9006C164.247 27.2434 165.028 25.8584 166.117 24.7457C167.206 23.6212 168.538 22.7808 170.112 22.2244C171.686 21.6562 173.426 21.3722 175.332 21.3722C176.646 21.3722 177.954 21.526 179.256 21.8338C180.558 22.1416 181.748 22.6506 182.825 23.3608C183.902 24.0592 184.766 25.0121 185.417 26.2195C186.08 27.4268 186.412 28.9361 186.412 30.7472V49H180.233V45.2536H180.02C179.629 46.0111 179.079 46.7214 178.368 47.3842C177.67 48.0353 176.788 48.562 175.723 48.9645C174.669 49.3551 173.432 49.5504 172.012 49.5504ZM173.681 44.8274C174.971 44.8274 176.09 44.5729 177.037 44.0639C177.984 43.5431 178.712 42.8565 179.221 42.0043C179.742 41.152 180.002 40.2228 180.002 39.2166V36.0028C179.801 36.1686 179.457 36.3224 178.972 36.4645C178.499 36.6065 177.966 36.7308 177.374 36.8374C176.782 36.9439 176.196 37.0386 175.616 37.1214C175.036 37.2043 174.533 37.2753 174.107 37.3345C173.148 37.4647 172.29 37.6778 171.532 37.9737C170.775 38.2696 170.177 38.6839 169.739 39.2166C169.301 39.7375 169.082 40.4122 169.082 41.2408C169.082 42.4245 169.514 43.3182 170.378 43.9219C171.242 44.5256 172.343 44.8274 173.681 44.8274ZM217.173 49.5327C214.451 49.5327 212.113 48.9349 210.16 47.7393C208.219 46.5438 206.721 44.8925 205.668 42.7855C204.626 40.6667 204.105 38.2282 204.105 35.4702C204.105 32.7003 204.638 30.2559 205.703 28.1371C206.769 26.0064 208.272 24.3492 210.213 23.1655C212.166 21.9699 214.475 21.3722 217.138 21.3722C219.352 21.3722 221.311 21.7805 223.015 22.5973C224.731 23.4022 226.099 24.5445 227.117 26.0241C228.135 27.492 228.715 29.2083 228.857 31.1733H222.713C222.465 29.8594 221.873 28.7644 220.938 27.8885C220.014 27.0007 218.777 26.5568 217.227 26.5568C215.913 26.5568 214.759 26.9119 213.764 27.6222C212.77 28.3205 211.995 29.3267 211.438 30.6406C210.894 31.9545 210.622 33.5289 210.622 35.3636C210.622 37.2221 210.894 38.8201 211.438 40.1577C211.983 41.4834 212.746 42.5073 213.729 43.2294C214.723 43.9396 215.889 44.2947 217.227 44.2947C218.174 44.2947 219.02 44.1172 219.766 43.7621C220.523 43.3951 221.157 42.8684 221.666 42.1818C222.175 41.4953 222.524 40.6607 222.713 39.6783H228.857C228.703 41.6077 228.135 43.3182 227.152 44.8097C226.17 46.2893 224.832 47.4493 223.139 48.2898C221.447 49.1184 219.458 49.5327 217.173 49.5327ZM246.031 49.5327C243.368 49.5327 241.059 48.9467 239.106 47.7749C237.153 46.603 235.638 44.9635 234.561 42.8565C233.495 40.7495 232.963 38.2874 232.963 35.4702C232.963 32.6529 233.495 30.1849 234.561 28.0661C235.638 25.9472 237.153 24.3018 239.106 23.13C241.059 21.9581 243.368 21.3722 246.031 21.3722C248.694 21.3722 251.002 21.9581 252.956 23.13C254.909 24.3018 256.418 25.9472 257.483 28.0661C258.56 30.1849 259.099 32.6529 259.099 35.4702C259.099 38.2874 258.56 40.7495 257.483 42.8565C256.418 44.9635 254.909 46.603 252.956 47.7749C251.002 48.9467 248.694 49.5327 246.031 49.5327ZM246.066 44.3835C247.511 44.3835 248.718 43.987 249.689 43.1939C250.659 42.389 251.381 41.3118 251.855 39.9624C252.34 38.6129 252.583 37.1096 252.583 35.4524C252.583 33.7834 252.34 32.2741 251.855 30.9247C251.381 29.5634 250.659 28.4804 249.689 27.6754C248.718 26.8705 247.511 26.468 246.066 26.468C244.587 26.468 243.356 26.8705 242.373 27.6754C241.403 28.4804 240.675 29.5634 240.189 30.9247C239.716 32.2741 239.479 33.7834 239.479 35.4524C239.479 37.1096 239.716 38.6129 240.189 39.9624C240.675 41.3118 241.403 42.389 242.373 43.1939C243.356 43.987 244.587 44.3835 246.066 44.3835ZM270.982 33.0199V49H264.555V21.7273H270.698V26.3615H271.018C271.645 24.8345 272.645 23.6212 274.018 22.7216C275.403 21.822 277.114 21.3722 279.15 21.3722C281.032 21.3722 282.671 21.7746 284.068 22.5795C285.477 23.3845 286.566 24.5504 287.335 26.0774C288.116 27.6044 288.501 29.4569 288.489 31.6349V49H282.062V32.6293C282.062 30.8063 281.588 29.38 280.641 28.3501C279.706 27.3203 278.41 26.8054 276.753 26.8054C275.628 26.8054 274.628 27.054 273.752 27.5511C272.888 28.0365 272.207 28.7408 271.71 29.6641C271.225 30.5874 270.982 31.706 270.982 33.0199ZM308.642 21.7273V26.6989H292.964V21.7273H308.642ZM296.834 15.1932H303.262V40.7969C303.262 41.661 303.392 42.3239 303.653 42.7855C303.925 43.2353 304.28 43.5431 304.718 43.7088C305.156 43.8745 305.641 43.9574 306.174 43.9574C306.576 43.9574 306.943 43.9278 307.275 43.8686C307.618 43.8094 307.878 43.7562 308.056 43.7088L309.139 48.7337C308.796 48.852 308.305 48.9822 307.665 49.1243C307.038 49.2663 306.269 49.3492 305.357 49.3729C303.747 49.4202 302.297 49.1776 301.007 48.6449C299.717 48.1004 298.693 47.2599 297.935 46.1236C297.189 44.9872 296.823 43.5668 296.834 41.8622V15.1932ZM321.865 49.5504C320.137 49.5504 318.581 49.2427 317.196 48.6271C315.823 47.9998 314.734 47.0765 313.929 45.8572C313.136 44.638 312.739 43.1347 312.739 41.3473C312.739 39.8085 313.023 38.536 313.591 37.5298C314.159 36.5237 314.935 35.7188 315.917 35.1151C316.9 34.5114 318.007 34.0556 319.238 33.7479C320.48 33.4283 321.765 33.1974 323.091 33.0554C324.689 32.8897 325.985 32.7417 326.979 32.6115C327.973 32.4695 328.695 32.2564 329.145 31.9723C329.607 31.6764 329.838 31.2206 329.838 30.6051V30.4986C329.838 29.161 329.441 28.1252 328.648 27.3913C327.855 26.6574 326.713 26.2905 325.221 26.2905C323.647 26.2905 322.398 26.6338 321.475 27.3203C320.563 28.0069 319.948 28.8177 319.628 29.7528L313.627 28.9006C314.1 27.2434 314.882 25.8584 315.971 24.7457C317.06 23.6212 318.391 22.7808 319.966 22.2244C321.54 21.6562 323.28 21.3722 325.186 21.3722C326.5 21.3722 327.808 21.526 329.11 21.8338C330.412 22.1416 331.601 22.6506 332.679 23.3608C333.756 24.0592 334.62 25.0121 335.271 26.2195C335.934 27.4268 336.265 28.9361 336.265 30.7472V49H330.086V45.2536H329.873C329.483 46.0111 328.932 46.7214 328.222 47.3842C327.524 48.0353 326.642 48.562 325.576 48.9645C324.523 49.3551 323.286 49.5504 321.865 49.5504ZM323.534 44.8274C324.825 44.8274 325.943 44.5729 326.89 44.0639C327.837 43.5431 328.565 42.8565 329.074 42.0043C329.595 41.152 329.855 40.2228 329.855 39.2166V36.0028C329.654 36.1686 329.311 36.3224 328.826 36.4645C328.352 36.6065 327.819 36.7308 327.228 36.8374C326.636 36.9439 326.05 37.0386 325.47 37.1214C324.89 37.2043 324.387 37.2753 323.961 37.3345C323.002 37.4647 322.144 37.6778 321.386 37.9737C320.628 38.2696 320.031 38.6839 319.593 39.2166C319.155 39.7375 318.936 40.4122 318.936 41.2408C318.936 42.4245 319.368 43.3182 320.232 43.9219C321.096 44.5256 322.197 44.8274 323.534 44.8274Z" fill="#373764"/>
</svg>
