<svg width="88" height="40" viewBox="0 0 88 40" fill="none" xmlns="http://www.w3.org/2000/svg">
<path d="M15.9212 11.7273V16.6989H0.242898V11.7273H15.9212ZM4.11364 5.19318H10.5412V30.7969C10.5412 31.661 10.6714 32.3239 10.9318 32.7855C11.2041 33.2353 11.5592 33.5431 11.9972 33.7088C12.4351 33.8745 12.9205 33.9574 13.4531 33.9574C13.8556 33.9574 14.2225 33.9278 14.554 33.8686C14.8973 33.8094 15.1577 33.7562 15.3352 33.7088L16.4183 38.7337C16.075 38.852 15.5838 38.9822 14.9446 39.1243C14.3172 39.2663 13.5478 39.3492 12.6364 39.3729C11.0265 39.4202 9.57647 39.1776 8.28622 38.6449C6.99598 38.1004 5.97206 37.2599 5.21449 36.1236C4.46875 34.9872 4.1018 33.5668 4.11364 31.8622V5.19318ZM33.0776 39.5327C30.3432 39.5327 27.9817 38.9645 25.9931 37.8281C24.0163 36.6799 22.4952 35.0582 21.4299 32.9631C20.3645 30.8561 19.8319 28.3762 19.8319 25.5234C19.8319 22.718 20.3645 20.2559 21.4299 18.1371C22.507 16.0064 24.0104 14.3492 25.9398 13.1655C27.8693 11.9699 30.1361 11.3722 32.7402 11.3722C34.4211 11.3722 36.0073 11.6444 37.4988 12.1889C39.0021 12.7216 40.3278 13.5502 41.476 14.6747C42.6361 15.7992 43.5475 17.2315 44.2104 18.9716C44.8733 20.6998 45.2047 22.7595 45.2047 25.1506V27.1214H22.8503V22.7891H39.0435C39.0317 21.558 38.7653 20.4631 38.2445 19.5043C37.7237 18.5336 36.9957 17.7701 36.0605 17.2138C35.1373 16.6574 34.0601 16.3793 32.829 16.3793C31.5151 16.3793 30.361 16.6989 29.3667 17.3381C28.3723 17.9654 27.597 18.794 27.0407 19.8239C26.4962 20.8419 26.218 21.9605 26.2061 23.1797V26.9616C26.2061 28.5478 26.4962 29.9091 27.0762 31.0455C27.6562 32.17 28.467 33.0341 29.5087 33.6378C30.5504 34.2296 31.7696 34.5256 33.1664 34.5256C34.1015 34.5256 34.9479 34.3954 35.7054 34.1349C36.463 33.8627 37.12 33.4661 37.6763 32.9453C38.2327 32.4245 38.6529 31.7794 38.937 31.0099L44.9384 31.6847C44.5596 33.2708 43.8375 34.6558 42.7722 35.8395C41.7187 37.0114 40.3693 37.9228 38.7239 38.5739C37.0785 39.2131 35.1964 39.5327 33.0776 39.5327ZM57.07 2.63636V39H50.6424V2.63636H57.07ZM75.7534 39.5327C73.019 39.5327 70.6575 38.9645 68.6689 37.8281C66.6921 36.6799 65.171 35.0582 64.1056 32.9631C63.0403 30.8561 62.5076 28.3762 62.5076 25.5234C62.5076 22.718 63.0403 20.2559 64.1056 18.1371C65.1828 16.0064 66.6861 14.3492 68.6156 13.1655C70.545 11.9699 72.8118 11.3722 75.416 11.3722C77.0969 11.3722 78.6831 11.6444 80.1745 12.1889C81.6779 12.7216 83.0036 13.5502 84.1518 14.6747C85.3118 15.7992 86.2233 17.2315 86.8862 18.9716C87.5491 20.6998 87.8805 22.7595 87.8805 25.1506V27.1214H65.5261V22.7891H81.7193C81.7074 21.558 81.4411 20.4631 80.9203 19.5043C80.3994 18.5336 79.6715 17.7701 78.7363 17.2138C77.813 16.6574 76.7359 16.3793 75.5048 16.3793C74.1909 16.3793 73.0368 16.6989 72.0424 17.3381C71.0481 17.9654 70.2728 18.794 69.7164 19.8239C69.1719 20.8419 68.8938 21.9605 68.8819 23.1797V26.9616C68.8819 28.5478 69.1719 29.9091 69.752 31.0455C70.332 32.17 71.1428 33.0341 72.1845 33.6378C73.2261 34.2296 74.4454 34.5256 75.8422 34.5256C76.7773 34.5256 77.6236 34.3954 78.3812 34.1349C79.1388 33.8627 79.7958 33.4661 80.3521 32.9453C80.9084 32.4245 81.3287 31.7794 81.6127 31.0099L87.6142 31.6847C87.2354 33.2708 86.5133 34.6558 85.448 35.8395C84.3945 37.0114 83.045 37.9228 81.3997 38.5739C79.7543 39.2131 77.8722 39.5327 75.7534 39.5327ZM78.8429 8.46023L75.2385 3.91477L71.6341 8.46023H66.0055V8.21165L72.7349 0.541191H77.7598L84.4714 8.21165V8.46023H78.8429Z" fill="#F9C817"/>
</svg>
